#Comment line ignore any data following # character 
#Hierarchical Translation and Rotation (.htr) file 
[Header]	
#Header keywords are followed by a single value 
FileType HTR		#Single word string
DataType HTRS		#Translation followed by rotation and scale data
FileVersion 1		#integer
NumSegments 84		#integer
NumFrames 2		#integer
DataFrameRate 30		#integer, data frame rate in this file
EulerRotationOrder ZYX
CalibrationUnits mm
RotationUnits Degrees
GlobalAxisofGravity Y
BoneLengthAxis Y
ScaleFactor 1.00
[SegmentNames&Hierarchy]
#CHILD	PARENT
MASTER GLOBAL
root MASTER
chest root
L_mid_tent01 root
R_mid_tent01 root
spine01 root
Bip01_Neck chest
L_humerus chest
R_humerus chest
weapon_bone chest
Bip01_Head Bip01_Neck
eye_left_bone Bip01_Head
eye_right_bone Bip01_Head
L_forearm L_humerus
L_front_hand L_forearm
L_weapon_bone L_forearm
L_front_hand01_01 L_front_hand
L_front_hand02_01 L_front_hand
L_front_hand03_01 L_front_hand
L_front_hand01_02 L_front_hand01_01
L_front_hand02_02 L_front_hand02_01
L_front_hand03_02 L_front_hand03_01
R_forearm R_humerus
R_front_hand R_forearm
R_weapon_bone R_forearm
R_front_hand01_01 R_front_hand
R_front_hand02_01 R_front_hand
R_front_hand03_01 R_front_hand
R_front_hand01_02 R_front_hand01_01
R_front_hand02_02 R_front_hand02_01
R_front_hand03_02 R_front_hand03_01
null_rope01_connect L_mid_tent01
Rope1_Seg01 null_rope01_connect
Rope1_Seg02 Rope1_Seg01
Rope1_Seg03 Rope1_Seg02
Rope1_Seg04 Rope1_Seg03
Rope1_Seg05 Rope1_Seg04
Rope1_Seg06 Rope1_Seg05
Rope1_Seg07 Rope1_Seg06
Rope1_Seg09 Rope1_Seg07
L_mid_hand01 Rope1_Seg09
L_mid_hand02 Rope1_Seg09
L_mid_hand03 Rope1_Seg09
null_rope02_connect R_mid_tent01
Rope2_Seg01 null_rope02_connect
Rope2_Seg02 Rope2_Seg01
Rope2_Seg03 Rope2_Seg02
Rope2_Seg04 Rope2_Seg03
Rope2_Seg05 Rope2_Seg04
Rope2_Seg06 Rope2_Seg05
Rope2_Seg07 Rope2_Seg06
Rope2_Seg09 Rope2_Seg07
R_mid_hand01 Rope2_Seg09
R_mid_hand02 Rope2_Seg09
R_mid_hand03 Rope2_Seg09
spine02 spine01
spine03 spine02
pelvis spine03
null_rope03_connect pelvis
null_rope04_connect pelvis
Rope3_Seg01 null_rope03_connect
Rope3_Seg02 Rope3_Seg01
Rope3_Seg03 Rope3_Seg02
Rope3_Seg04 Rope3_Seg03
Rope3_Seg05 Rope3_Seg04
Rope3_Seg06 Rope3_Seg05
Rope3_Seg07 Rope3_Seg06
Rope3_Seg08 Rope3_Seg07
Rope3_Seg09 Rope3_Seg08
R_rear_hand01 Rope3_Seg09
R_rear_hand02 Rope3_Seg09
R_rear_hand03 Rope3_Seg09
Rope4_Seg01 null_rope04_connect
Rope4_Seg02 Rope4_Seg01
Rope4_Seg03 Rope4_Seg02
Rope4_Seg04 Rope4_Seg03
Rope4_Seg05 Rope4_Seg04
Rope4_Seg06 Rope4_Seg05
Rope4_Seg07 Rope4_Seg06
Rope4_Seg08 Rope4_Seg07
Rope4_Seg09 Rope4_Seg08
L_rear_hand01 Rope4_Seg09
L_rear_hand02 Rope4_Seg09
L_rear_hand03 Rope4_Seg09
[BasePosition]
#SegmentName Tx, Ty, Tz, Rx, Ry, Rz, BoneLength
MASTER 0.000000 0.000000 0.000000 -90.000000 0.000000 0.000000 10.000000 
root 0.000000 0.000000 0.000000 0.000000 0.000000 0.000000 10.000000 
chest 0.000000 0.000000 0.000000 0.000000 0.000000 0.000000 10.000000 
L_mid_tent01 0.000000 0.000000 0.000000 0.000000 0.000000 0.000000 10.000000 
R_mid_tent01 0.000000 0.000000 0.000000 0.000000 0.000000 0.000000 10.000000 
spine01 0.000000 0.000000 0.000000 0.000000 0.000000 0.000000 10.000000 
Bip01_Neck 0.000000 0.000000 0.000000 0.000000 0.000000 0.000000 10.000000 
L_humerus 0.000000 0.000000 0.000000 0.000000 0.000000 0.000000 10.000000 
R_humerus 0.000000 0.000000 0.000000 0.000000 0.000000 0.000000 10.000000 
weapon_bone 0.000000 0.000000 0.000000 0.000000 0.000000 0.000000 10.000000 
Bip01_Head 0.000000 0.000000 0.000000 0.000000 0.000000 0.000000 10.000000 
eye_left_bone 0.000000 0.000000 0.000000 0.000000 0.000000 0.000000 10.000000 
eye_right_bone 0.000000 0.000000 0.000000 0.000000 0.000000 0.000000 10.000000 
L_forearm 0.000000 0.000000 0.000000 0.000000 0.000000 0.000000 10.000000 
L_front_hand 0.000000 0.000000 0.000000 0.000000 0.000000 0.000000 10.000000 
L_weapon_bone 0.000000 0.000000 0.000000 0.000000 0.000000 0.000000 10.000000 
L_front_hand01_01 0.000000 0.000000 0.000000 0.000000 0.000000 0.000000 10.000000 
L_front_hand02_01 0.000000 0.000000 0.000000 0.000000 0.000000 0.000000 10.000000 
L_front_hand03_01 0.000000 0.000000 0.000000 0.000000 0.000000 0.000000 10.000000 
L_front_hand01_02 0.000000 0.000000 0.000000 0.000000 0.000000 0.000000 10.000000 
L_front_hand02_02 0.000000 0.000000 0.000000 0.000000 0.000000 0.000000 10.000000 
L_front_hand03_02 0.000000 0.000000 0.000000 0.000000 0.000000 0.000000 10.000000 
R_forearm 0.000000 0.000000 0.000000 0.000000 0.000000 0.000000 10.000000 
R_front_hand 0.000000 0.000000 0.000000 0.000000 0.000000 0.000000 10.000000 
R_weapon_bone 0.000000 0.000000 0.000000 0.000000 0.000000 0.000000 10.000000 
R_front_hand01_01 0.000000 0.000000 0.000000 0.000000 0.000000 0.000000 10.000000 
R_front_hand02_01 0.000000 0.000000 0.000000 0.000000 0.000000 0.000000 10.000000 
R_front_hand03_01 0.000000 0.000000 0.000000 0.000000 0.000000 0.000000 10.000000 
R_front_hand01_02 0.000000 0.000000 0.000000 0.000000 0.000000 0.000000 10.000000 
R_front_hand02_02 0.000000 0.000000 0.000000 0.000000 0.000000 0.000000 10.000000 
R_front_hand03_02 0.000000 0.000000 0.000000 0.000000 0.000000 0.000000 10.000000 
null_rope01_connect 0.000000 0.000000 0.000000 0.000000 0.000000 0.000000 10.000000 
Rope1_Seg01 0.000000 0.000000 0.000000 0.000000 0.000000 0.000000 10.000000 
Rope1_Seg02 0.000000 0.000000 0.000000 0.000000 0.000000 0.000000 10.000000 
Rope1_Seg03 0.000000 0.000000 0.000000 0.000000 0.000000 0.000000 10.000000 
Rope1_Seg04 0.000000 0.000000 0.000000 0.000000 0.000000 0.000000 10.000000 
Rope1_Seg05 0.000000 0.000000 0.000000 0.000000 0.000000 0.000000 10.000000 
Rope1_Seg06 0.000000 0.000000 0.000000 0.000000 0.000000 0.000000 10.000000 
Rope1_Seg07 0.000000 0.000000 0.000000 0.000000 0.000000 0.000000 10.000000 
Rope1_Seg09 0.000000 0.000000 0.000000 0.000000 0.000000 0.000000 10.000000 
L_mid_hand01 0.000000 0.000000 0.000000 0.000000 0.000000 0.000000 10.000000 
L_mid_hand02 0.000000 0.000000 0.000000 0.000000 0.000000 0.000000 10.000000 
L_mid_hand03 0.000000 0.000000 0.000000 0.000000 0.000000 0.000000 10.000000 
null_rope02_connect 0.000000 0.000000 0.000000 0.000000 0.000000 0.000000 10.000000 
Rope2_Seg01 0.000000 0.000000 0.000000 0.000000 0.000000 0.000000 10.000000 
Rope2_Seg02 0.000000 0.000000 0.000000 0.000000 0.000000 0.000000 10.000000 
Rope2_Seg03 0.000000 0.000000 0.000000 0.000000 0.000000 0.000000 10.000000 
Rope2_Seg04 0.000000 0.000000 0.000000 0.000000 0.000000 0.000000 10.000000 
Rope2_Seg05 0.000000 0.000000 0.000000 0.000000 0.000000 0.000000 10.000000 
Rope2_Seg06 0.000000 0.000000 0.000000 0.000000 0.000000 0.000000 10.000000 
Rope2_Seg07 0.000000 0.000000 0.000000 0.000000 0.000000 0.000000 10.000000 
Rope2_Seg09 0.000000 0.000000 0.000000 0.000000 0.000000 0.000000 10.000000 
R_mid_hand01 0.000000 0.000000 0.000000 0.000000 0.000000 0.000000 10.000000 
R_mid_hand02 0.000000 0.000000 0.000000 0.000000 0.000000 0.000000 10.000000 
R_mid_hand03 0.000000 0.000000 0.000000 0.000000 0.000000 0.000000 10.000000 
spine02 0.000000 0.000000 0.000000 0.000000 0.000000 0.000000 10.000000 
spine03 0.000000 0.000000 0.000000 0.000000 0.000000 0.000000 10.000000 
pelvis 0.000000 0.000000 0.000000 0.000000 0.000000 0.000000 10.000000 
null_rope03_connect 0.000000 0.000000 0.000000 0.000000 0.000000 0.000000 10.000000 
null_rope04_connect 0.000000 0.000000 0.000000 0.000000 0.000000 0.000000 10.000000 
Rope3_Seg01 0.000000 0.000000 0.000000 0.000000 0.000000 0.000000 10.000000 
Rope3_Seg02 0.000000 0.000000 0.000000 0.000000 0.000000 0.000000 10.000000 
Rope3_Seg03 0.000000 0.000000 0.000000 0.000000 0.000000 0.000000 10.000000 
Rope3_Seg04 0.000000 0.000000 0.000000 0.000000 0.000000 0.000000 10.000000 
Rope3_Seg05 0.000000 0.000000 0.000000 0.000000 0.000000 0.000000 10.000000 
Rope3_Seg06 0.000000 0.000000 0.000000 0.000000 0.000000 0.000000 10.000000 
Rope3_Seg07 0.000000 0.000000 0.000000 0.000000 0.000000 0.000000 10.000000 
Rope3_Seg08 0.000000 0.000000 0.000000 0.000000 0.000000 0.000000 10.000000 
Rope3_Seg09 0.000000 0.000000 0.000000 0.000000 0.000000 0.000000 10.000000 
R_rear_hand01 0.000000 0.000000 0.000000 0.000000 0.000000 0.000000 10.000000 
R_rear_hand02 0.000000 0.000000 0.000000 0.000000 0.000000 0.000000 10.000000 
R_rear_hand03 0.000000 0.000000 0.000000 0.000000 0.000000 0.000000 10.000000 
Rope4_Seg01 0.000000 0.000000 0.000000 0.000000 0.000000 0.000000 10.000000 
Rope4_Seg02 0.000000 0.000000 0.000000 0.000000 0.000000 0.000000 10.000000 
Rope4_Seg03 0.000000 0.000000 0.000000 0.000000 0.000000 0.000000 10.000000 
Rope4_Seg04 0.000000 0.000000 0.000000 0.000000 0.000000 0.000000 10.000000 
Rope4_Seg05 0.000000 0.000000 0.000000 0.000000 0.000000 0.000000 10.000000 
Rope4_Seg06 0.000000 0.000000 0.000000 0.000000 0.000000 0.000000 10.000000 
Rope4_Seg07 0.000000 0.000000 0.000000 0.000000 0.000000 0.000000 10.000000 
Rope4_Seg08 0.000000 0.000000 0.000000 0.000000 0.000000 0.000000 10.000000 
Rope4_Seg09 0.000000 0.000000 0.000000 0.000000 0.000000 0.000000 10.000000 
L_rear_hand01 0.000000 0.000000 0.000000 0.000000 0.000000 0.000000 10.000000 
L_rear_hand02 0.000000 0.000000 0.000000 0.000000 0.000000 0.000000 10.000000 
L_rear_hand03 0.000000 0.000000 0.000000 0.000000 0.000000 0.000000 10.000000 
#Beginning of Data. Separated by tabs
#Fr	Tx	Ty	Tz	Rx	Ry	Rz	SF
[MASTER]
1 0.000000 0.000000 0.000000 0.001660 0.001660 0.001660 0.000000
2 0.000000 0.000000 0.000000 0.001660 0.001660 0.001660 0.000000
[root]
1 -16.502245 -199.343719 95.170113 -85.747314 -61.785290 -93.080711 221.512070
2 -16.515438 -195.885986 108.751961 -85.832146 -58.872726 -92.617668 224.657669
[chest]
1 -84.512650 -34.090519 0.000000 2.351820 -1.564439 -123.862190 91.129311
2 -84.512650 -34.090519 0.000000 2.374625 -1.591534 -123.132401 91.129311
[L_mid_tent01]
1 27.299536 22.177525 -249.917984 -16.931429 0.775478 122.615410 252.380875
2 27.313713 22.169397 -250.008789 -17.285879 0.317142 121.155731 252.471603
[R_mid_tent01]
1 23.228794 24.509907 226.238495 -174.907959 1.879112 112.552528 228.744751
2 23.228794 24.509907 226.238495 -174.597122 2.080718 111.347656 228.744751
[spine01]
1 -0.361383 -0.195265 0.000000 0.001947 0.001312 22.051847 0.410763
2 -0.361383 -0.195265 0.000000 0.001947 0.001311 22.087122 0.410763
[Bip01_Neck]
1 165.484543 71.581718 0.000119 175.896118 1.177290 24.871183 180.302734
2 165.484543 71.581718 0.000119 175.896118 1.177290 24.871183 180.302734
[L_humerus]
1 -13.983130 -135.272980 -120.471481 -91.668343 0.804969 -167.458298 181.680161
2 -13.983130 -135.272980 -120.471481 -91.785942 0.785463 -168.584061 181.680161
[R_humerus]
1 -13.983309 -135.273102 125.287651 103.000755 1.729733 -169.272232 184.909012
2 -13.983309 -135.273102 125.287651 103.000740 1.729732 -169.272232 184.909012
[weapon_bone]
1 235.964890 -300.705902 0.000000 0.000000 -89.951546 -128.212341 382.234833
2 235.964890 -300.705902 0.000000 0.000000 -89.951546 -128.212341 382.234833
[Bip01_Head]
1 102.819801 23.735422 5.410397 3.150732 3.423701 -20.839092 105.662453
2 102.819801 23.735432 5.410390 3.150732 3.423701 -20.839092 105.662453
[eye_left_bone]
1 -24.626970 125.451866 -64.772606 0.000000 -90.000000 -99.840431 143.318359
2 -24.626970 125.451866 -64.772606 0.000000 -90.000000 -99.840431 143.318359
[eye_right_bone]
1 -24.626970 125.451866 64.327362 0.000000 -89.972023 80.159393 143.117676
2 -24.626970 125.451866 64.327362 0.000000 -89.972023 80.159393 143.117676
[L_forearm]
1 322.776093 0.000000 -0.000119 0.000017 0.002347 -89.149834 322.776093
2 322.776093 0.000000 -0.000119 0.000017 0.002347 -89.149834 322.776093
[L_front_hand]
1 241.149185 -0.042021 -3.300071 -177.733521 -0.056157 -80.028160 241.171753
2 241.149185 -0.042021 -3.300071 -177.734299 -0.069117 -79.725182 241.171753
[L_weapon_bone]
1 156.183990 0.000044 0.000000 0.001660 0.001660 0.001723 156.183990
2 156.134995 0.352992 0.000041 0.001719 0.001599 4.142251 156.135391
[L_front_hand01_01]
1 86.095154 20.947098 -0.655860 0.405585 -0.442306 -4.620490 88.609184
2 86.095154 20.947098 -0.655860 0.405585 -0.442306 -4.620490 88.609184
[L_front_hand02_01]
1 86.935165 -11.437475 24.513514 116.959450 3.630817 1.495453 91.046425
2 86.935165 -11.437475 24.513514 116.959450 3.630817 1.495453 91.046425
[L_front_hand03_01]
1 86.637497 -14.123976 -20.424902 -118.420097 -4.656303 -0.152527 90.126129
2 86.637497 -14.123976 -20.424902 -118.420097 -4.656303 -0.152527 90.126129
[L_front_hand01_02]
1 71.020905 -0.000179 0.000030 0.000004 -0.000005 -8.379269 71.020905
2 71.020905 -0.000179 0.000030 0.000004 -0.000005 -8.379269 71.020905
[L_front_hand02_02]
1 71.020927 -0.000119 0.000060 -0.000005 -0.000004 -8.379259 71.020927
2 71.020927 -0.000119 0.000060 -0.000005 -0.000004 -8.379259 71.020927
[L_front_hand03_02]
1 71.020905 -0.000060 0.000060 0.000015 -0.000040 -8.379267 71.020905
2 71.020905 -0.000060 0.000060 0.000015 -0.000040 -8.379267 71.020905
[R_forearm]
1 322.776428 -0.000060 0.000030 0.207856 -0.034204 -81.462509 322.776428
2 322.776428 -0.000060 0.000030 0.208145 -0.032397 -82.458298 322.776428
[R_front_hand]
1 238.847015 -0.006795 2.210259 -1.672657 -0.416885 -92.753014 238.857239
2 238.847015 -0.006795 2.210259 -1.677316 -0.409070 -92.452049 238.857239
[R_weapon_bone]
1 155.664093 0.002503 -0.000030 0.003487 0.001180 -90.988930 155.664078
2 155.664093 0.002503 -0.000030 0.003484 0.001186 -91.203705 155.664078
[R_front_hand01_01]
1 87.624611 14.231146 22.918642 -116.960213 3.496675 -1.324138 91.683487
2 87.624611 14.231146 22.918642 -116.960205 3.496674 -1.324138 91.683487
[R_front_hand02_01]
1 89.356956 14.367283 -19.491137 118.419647 -4.257089 0.609827 92.579636
2 89.356956 14.367283 -19.491137 118.419647 -4.257089 0.609827 92.579636
[R_front_hand03_01]
1 87.286232 -22.307278 -0.143439 -0.387970 -0.231462 4.232001 90.091743
2 87.286232 -22.307278 -0.143439 -0.387970 -0.231462 4.232001 90.091743
[R_front_hand01_02]
1 71.020905 0.000060 0.000119 -0.000005 -0.000020 8.379271 71.020905
2 71.020905 0.000060 0.000119 -0.000005 -0.000020 8.379271 71.020905
[R_front_hand02_02]
1 71.020844 -0.000030 -0.000119 0.000000 -0.000021 8.379271 71.020836
2 71.020844 -0.000030 -0.000119 0.000000 -0.000021 8.379271 71.020836
[R_front_hand03_02]
1 71.020905 0.000000 0.000030 -0.000001 -0.000020 8.379275 71.020905
2 71.020905 0.000000 0.000030 -0.000001 -0.000020 8.379275 71.020905
[null_rope01_connect]
1 328.732483 0.000000 -0.000238 114.834473 -73.416130 -85.415192 328.732483
2 328.732483 0.000000 -0.000238 111.204063 -72.762825 -83.132187 328.732483
[Rope1_Seg01]
1 0.000076 -0.000076 0.000000 76.197182 39.918377 88.813705 0.000108
2 0.000074 -0.000075 0.000004 85.700089 22.936073 94.451569 0.000106
[Rope1_Seg02]
1 139.999863 -0.000179 0.000000 43.990990 -19.065498 61.903759 139.999863
2 139.999863 -0.000179 0.000000 42.849556 -16.379423 48.075371 139.999863
[Rope1_Seg03]
1 139.999924 0.000060 -0.000060 34.182880 5.682700 10.222136 139.999924
2 139.999924 0.000060 -0.000060 54.302509 10.483670 16.076286 139.999924
[Rope1_Seg04]
1 139.999924 -0.000060 -0.000119 58.825340 35.984379 22.761045 139.999924
2 139.999924 -0.000060 -0.000119 32.888786 45.529823 3.257016 139.999924
[Rope1_Seg05]
1 139.999832 0.000119 -0.000060 2.019387 30.094486 -14.619713 139.999832
2 139.999832 0.000119 -0.000060 0.349642 20.240131 -11.364010 139.999832
[Rope1_Seg06]
1 139.999954 0.000119 -0.000060 -0.459780 11.851638 -6.837188 139.999954
2 139.999954 0.000119 -0.000060 -0.320549 8.838054 -5.258183 139.999954
[Rope1_Seg07]
1 139.999985 0.000060 0.000000 -0.248389 4.385134 -2.522290 139.999985
2 139.999985 0.000060 0.000000 -0.098421 2.443958 -1.444940 139.999985
[Rope1_Seg09]
1 121.602913 0.000119 -0.000089 -89.793175 -1.359789 0.847147 121.602913
2 121.602913 0.000119 -0.000089 -89.793175 -1.359789 0.847147 121.602913
[L_mid_hand01]
1 103.859421 1.038730 8.195221 104.352036 0.341479 -0.444583 104.187431
2 103.859421 1.038730 8.195221 104.352036 0.341479 -0.444583 104.187431
[L_mid_hand02]
1 105.572853 -4.139662 -10.864139 -135.608444 3.905687 -3.381056 106.211075
2 105.572853 -4.139662 -10.864139 -135.608444 3.905687 -3.381056 106.211075
[L_mid_hand03]
1 104.641464 17.579376 -3.913581 -18.761518 -0.324361 2.942913 106.179977
2 104.641464 17.579376 -3.913581 -18.761515 -0.324361 2.942912 106.179977
[null_rope02_connect]
1 328.732849 0.000179 -0.000119 130.241989 84.150314 -89.027786 328.732849
2 328.732849 0.000179 -0.000119 129.502457 84.029617 -88.052505 328.732849
[Rope2_Seg01]
1 0.000153 0.000114 -0.000000 -7.416231 51.930050 104.849808 0.000191
2 0.000151 0.000114 -0.000004 -13.459456 48.630466 98.655235 0.000190
[Rope2_Seg02]
1 139.999741 -0.000060 -0.000119 -13.919582 -44.901066 -23.552021 139.999756
2 139.999741 -0.000060 -0.000119 -15.071062 -50.684292 -33.361866 139.999756
[Rope2_Seg03]
1 140.000107 0.000030 0.000000 -30.767878 -26.441450 -33.583664 140.000107
2 140.000107 0.000030 0.000000 -24.472536 -17.115023 -27.063143 140.000107
[Rope2_Seg04]
1 139.999802 0.000000 -0.000060 -19.617201 -10.911951 -27.500189 139.999802
2 139.999802 0.000000 -0.000060 -20.807362 -12.157853 -31.812550 139.999802
[Rope2_Seg05]
1 139.999985 -0.000060 0.000119 -14.561025 -1.747152 -36.171589 139.999985
2 139.999985 -0.000060 0.000119 -11.588222 0.969469 -30.601236 139.999985
[Rope2_Seg06]
1 139.999893 -0.000030 -0.000119 -2.783746 3.750077 -14.875877 139.999893
2 139.999893 -0.000030 -0.000119 -2.248966 3.165920 -12.416096 139.999893
[Rope2_Seg07]
1 139.999893 0.000060 -0.000060 -0.463123 1.829232 -6.147075 139.999893
2 139.999893 0.000060 -0.000060 -0.426082 1.375107 -4.703513 139.999893
[Rope2_Seg09]
1 121.338966 0.000089 -0.000060 33.793236 -1.359788 -0.847141 121.338966
2 121.338966 0.000089 -0.000060 33.793236 -1.359788 -0.847141 121.338966
[R_mid_hand01]
1 104.680779 11.144459 -10.335981 -47.384243 2.963521 5.452602 105.778534
2 104.680779 11.144459 -10.335981 -47.384243 2.963521 5.452602 105.778534
[R_mid_hand02]
1 104.070427 2.443552 8.231699 75.626297 -2.250001 1.111093 104.424065
2 104.070427 2.443552 8.231699 75.626289 -2.250001 1.111093 104.424065
[R_mid_hand03]
1 106.028137 -11.221827 -5.996406 -164.381912 2.495983 -6.140520 106.788818
2 106.028137 -11.221827 -5.996406 -164.381912 2.495983 -6.140520 106.788818
[spine02]
1 129.756927 0.001550 0.000119 -3.457474 -3.018588 45.475342 129.756927
2 129.756927 0.001550 0.000119 -3.414986 -3.040171 44.703075 129.756927
[spine03]
1 79.115616 0.000000 -0.000006 5.373959 8.457514 50.351662 79.115616
2 79.108810 0.001178 -0.066515 5.339093 8.310952 50.194103 79.108841
[pelvis]
1 169.435242 0.051022 0.000000 -7.280166 -2.849531 13.982491 169.435257
2 169.435242 0.051022 0.000000 -7.271935 -2.859587 13.997871 169.435257
[null_rope03_connect]
1 -1.257226 -2.466202 137.391083 152.177277 -84.367645 -131.564697 137.418976
2 -1.257226 -2.466202 137.391083 144.407074 -84.358612 -125.812645 137.418976
[null_rope04_connect]
1 -1.259640 -2.480268 -137.844437 152.177277 -84.367645 -131.564697 137.872513
2 -1.259640 -2.480268 -137.844437 144.407074 -84.358612 -125.812645 137.872513
[Rope3_Seg01]
1 -0.000048 0.000114 -0.000010 -176.711533 77.972908 -111.222977 0.000124
2 -0.000047 0.000110 -0.000009 -168.960083 74.664864 -104.800995 0.000120
[Rope3_Seg02]
1 139.999924 -0.000119 0.000060 -8.559768 -16.796991 9.094155 139.999924
2 139.999924 -0.000119 0.000060 -15.330003 -26.117073 16.709311 139.999924
[Rope3_Seg03]
1 139.999924 -0.000119 0.000119 -17.155870 -41.082821 19.356171 139.999924
2 139.999924 -0.000119 0.000119 -16.987074 -44.903080 20.416983 139.999924
[Rope3_Seg04]
1 139.999924 0.000119 0.000000 -1.377821 -25.852177 5.409444 139.999924
2 139.999924 0.000119 0.000000 0.086930 -22.051823 4.193126 139.999924
[Rope3_Seg05]
1 139.999924 -0.000238 0.000060 8.328467 -54.778996 11.993386 139.999924
2 139.999924 -0.000238 0.000060 7.590277 -59.120785 17.850039 139.999924
[Rope3_Seg06]
1 139.999893 -0.000119 -0.000060 11.307887 -49.904495 29.956797 139.999893
2 139.999893 -0.000119 -0.000060 9.952884 -26.489597 15.490131 139.999893
[Rope3_Seg07]
1 139.999771 0.000060 -0.000119 3.256845 -5.855449 6.675816 139.999771
2 139.999771 0.000060 -0.000119 3.320385 -5.752628 5.187011 139.999771
[Rope3_Seg08]
1 139.999985 -0.000060 0.000000 1.545706 -2.092968 2.694507 139.999985
2 139.999985 -0.000060 0.000000 1.771140 -2.406154 2.448216 139.999985
[Rope3_Seg09]
1 90.185997 -0.000179 -0.000060 89.793228 -1.359877 -0.847183 90.185997
2 90.185997 -0.000179 -0.000060 89.793228 -1.359877 -0.847183 90.185997
[R_rear_hand01]
1 103.366196 -6.073594 -10.757982 -156.049316 6.070419 -2.795869 104.101845
2 103.366196 -6.073594 -10.757982 -156.049316 6.070419 -2.795869 104.101845
[R_rear_hand02]
1 100.509819 12.039542 -7.992327 -38.708435 1.958051 5.461186 101.543350
2 100.509819 12.039542 -7.992327 -38.708431 1.958051 5.461185 101.543350
[R_rear_hand03]
1 101.539970 5.215704 5.435467 84.307625 -2.361032 4.099037 101.819031
2 101.539970 5.215704 5.435467 84.307625 -2.361032 4.099037 101.819031
[Rope4_Seg01]
1 -0.000000 0.000076 -0.000076 87.856979 80.594833 -74.455544 0.000108
2 -0.000001 0.000071 -0.000078 86.504158 77.579597 -74.751709 0.000106
[Rope4_Seg02]
1 139.999985 0.000060 0.000119 4.211007 4.618312 -12.673904 139.999985
2 139.999985 0.000060 0.000119 6.052304 6.952762 -18.671967 139.999985
[Rope4_Seg03]
1 139.999924 0.000000 -0.000238 5.271537 10.002122 -40.584923 139.999924
2 139.999924 0.000000 -0.000238 3.461643 10.325369 -53.420261 139.999924
[Rope4_Seg04]
1 139.999985 0.000000 0.000119 -2.512988 3.906995 -40.927212 139.999985
2 139.999985 0.000000 0.000119 -3.966744 2.628057 -31.620937 139.999985
[Rope4_Seg05]
1 139.999802 -0.000060 -0.000119 -7.154889 5.104310 -27.286837 139.999802
2 139.999802 -0.000060 -0.000119 -11.985159 7.673001 -35.131565 139.999802
[Rope4_Seg06]
1 139.999924 0.000000 0.000060 -22.523804 13.763658 -50.552975 139.999924
2 139.999924 0.000000 0.000060 -11.069176 10.147008 -25.559092 139.999924
[Rope4_Seg07]
1 139.999802 0.000000 0.000000 -7.321296 11.329808 -17.966467 139.999802
2 139.999802 0.000000 0.000000 -3.724375 5.636898 -9.545768 139.999802
[Rope4_Seg08]
1 139.999924 0.000000 0.000119 -2.790393 3.412507 -4.294314 139.999924
2 139.999924 0.000000 0.000119 -3.037304 2.883672 -4.282353 139.999924
[Rope4_Seg09]
1 90.185791 0.000060 0.000060 -135.617828 2.228885 0.850567 90.185791
2 90.185791 0.000060 0.000060 -135.617828 2.228885 0.850567 90.185791
[L_rear_hand01]
1 101.696655 -8.392275 -7.654577 -38.746338 0.246096 177.290207 102.329041
2 101.696655 -8.392275 -7.654577 -38.746338 0.246096 177.290207 102.329041
[L_rear_hand02]
1 102.726799 -1.568258 5.773216 84.315163 -1.142796 176.247437 102.900848
2 102.726799 -1.568258 5.773216 84.315140 -1.142796 176.247437 102.900848
[L_rear_hand03]
1 104.552910 9.721220 -10.420293 -155.747955 -4.630845 179.564758 105.519653
2 104.552910 9.721220 -10.420293 -155.747955 -4.630845 179.564758 105.519653
